<svg width="40" height="40" viewBox="0 0 40 40" fill="none" xmlns="http://www.w3.org/2000/svg">
<path d="M4.62385 0C3.39753 0 2.22143 0.487168 1.3543 1.35433C0.487155 2.2215 8.8263e-07 3.39763 8.8263e-07 4.62398V15.849C0.00010666 17.6203 0.703842 19.3191 1.9564 20.5716L19.4243 38.0461C20.6779 39.297 22.3764 39.9996 24.1474 40C25.9183 40.0004 27.6171 39.2985 28.8713 38.0482L38.0409 28.8948C39.2941 27.643 39.9988 25.9447 40 24.1734C40.0012 22.4021 39.2987 20.7029 38.0471 19.4495L20.5792 1.96057C19.9594 1.3396 19.2233 0.846845 18.413 0.510444C17.6027 0.174043 16.7341 0.000592001 15.8567 0H4.6259H4.62385ZM10.2752 7.19697C10.68 7.19697 11.0809 7.27671 11.4549 7.43163C11.8289 7.58654 12.1687 7.81361 12.4549 8.09986C12.7412 8.38611 12.9682 8.72594 13.1231 9.09995C13.2781 9.47395 13.3578 9.87481 13.3578 10.2796C13.3578 10.6844 13.2781 11.0853 13.1231 11.4593C12.9682 11.8333 12.7412 12.1731 12.4549 12.4594C12.1687 12.7456 11.8289 12.9727 11.4549 13.1276C11.0809 13.2825 10.68 13.3623 10.2752 13.3623C9.45767 13.3623 8.67361 13.0375 8.09552 12.4594C7.51742 11.8813 7.19265 11.0972 7.19265 10.2796C7.19265 9.46206 7.51742 8.67797 8.09552 8.09986C8.67361 7.52175 9.45767 7.19697 10.2752 7.19697V7.19697Z" fill="black"/>
</svg>
