<svg width="24" height="24" viewBox="0 0 24 24" fill="none" xmlns="http://www.w3.org/2000/svg">
<path fill-rule="evenodd" clip-rule="evenodd" d="M22.174 9.81806C22.1635 9.89446 22.1886 9.97147 22.242 10.0271C23.048 10.857 23.4992 11.9681 23.5 13.1251V15.1251C23.4967 16.1509 22.8653 17.0699 21.909 17.4411C21.8133 17.4788 21.7502 17.5711 21.75 17.6741V19.6211C21.75 20.8637 20.7427 21.8711 19.5 21.8711C18.2574 21.8711 17.25 20.8637 17.25 19.6211V17.8711C17.25 17.733 17.1381 17.6211 17 17.6211H7.00001C6.86194 17.6211 6.75001 17.733 6.75001 17.8711V19.6211C6.75001 20.8637 5.74265 21.8711 4.50001 21.8711C3.25737 21.8711 2.25001 20.8637 2.25001 19.6211V17.6701C2.24979 17.5671 2.18677 17.4748 2.09101 17.4371C1.1347 17.0659 0.503345 16.1469 0.50001 15.1211V13.1211C0.501541 11.9666 0.951533 10.858 1.75501 10.0291C1.80846 9.97346 1.83352 9.89646 1.82301 9.82006C1.81214 9.74397 1.76675 9.67717 1.70001 9.63906L0.90001 9.17606C0.18204 8.76184 -0.0642036 7.84403 0.35001 7.12606C0.764224 6.40809 1.68204 6.16184 2.40001 6.57606L3.46301 7.19106C3.5342 7.23173 3.62077 7.23508 3.69488 7.20001C3.769 7.16495 3.82131 7.09589 3.83501 7.01506L4.23501 4.63206C4.47166 3.18272 5.72548 2.11957 7.19401 2.12306H16.802C18.2699 2.11942 19.5235 3.18151 19.761 4.63006L20.161 7.01306C20.1744 7.09385 20.2265 7.16296 20.3005 7.19806C20.3745 7.23316 20.461 7.22979 20.532 7.18906L21.597 6.57406C22.0615 6.30611 22.6336 6.30629 23.0978 6.57454C23.5621 6.84278 23.848 7.33834 23.8478 7.87454C23.8477 8.41073 23.5615 8.90611 23.097 9.17406L22.297 9.63706C22.2303 9.67517 22.1849 9.74197 22.174 9.81806ZM16.806 4.12506H7.19401C6.70615 4.12504 6.28948 4.47705 6.20801 4.95806L5.72901 7.83106C5.71695 7.9036 5.73744 7.97777 5.78503 8.03384C5.83261 8.0899 5.90247 8.12217 5.97601 8.12206H18.024C18.0975 8.12223 18.1674 8.09004 18.215 8.03406C18.2614 7.97848 18.2818 7.90567 18.271 7.83406L17.792 4.96106C17.7118 4.47886 17.2948 4.12528 16.806 4.12506ZM19.5 15.1251C18.6716 15.1251 18 14.4535 18 13.6251C18 12.7966 18.6716 12.1251 19.5 12.1251C20.3284 12.1251 21 12.7966 21 13.6251C21 14.4535 20.3284 15.1251 19.5 15.1251ZM4.50001 12.1251C3.67158 12.1251 3.00001 12.7966 3.00001 13.6251C3.00001 14.0229 3.15805 14.4044 3.43935 14.6857C3.72065 14.967 4.10219 15.1251 4.50001 15.1251C5.32844 15.1251 6.00001 14.4535 6.00001 13.6251C6.00001 12.7966 5.32844 12.1251 4.50001 12.1251Z" fill="black"/>
</svg>
