<svg width="24" height="24" viewBox="0 0 24 24" fill="none" xmlns="http://www.w3.org/2000/svg">
<path fill-rule="evenodd" clip-rule="evenodd" d="M22.7152 21.12C23.2674 21.12 23.7152 21.5498 23.7152 22.08C23.7152 22.6102 23.2674 23.04 22.7152 23.04C21.881 23.1132 21.0634 22.7841 20.5332 22.1616C20.1613 21.6236 20.0641 20.9525 20.2692 20.3376C20.9101 18.2367 21.3944 16.0947 21.7182 13.9277C21.7182 13.7664 21.7112 13.6368 21.7012 13.5322C21.6937 13.4554 21.6484 13.3868 21.5793 13.3477C21.5102 13.3085 21.4257 13.3036 21.3522 13.3344C21.0272 13.4734 20.6759 13.5469 20.3202 13.5504C20.0784 13.55 19.8377 13.5193 19.6042 13.4592L14.7742 12.2179C14.4534 12.1368 14.18 11.9355 14.0152 11.6592C13.9267 11.5082 13.8777 11.3389 13.8722 11.1658C13.8667 11.0617 13.792 10.9729 13.6872 10.9459L11.1312 10.2893C11.099 10.2807 11.0646 10.2896 11.0412 10.3123C11.0182 10.3348 11.0091 10.3672 11.0172 10.3978L11.7032 12.8534C11.7307 12.9517 11.8195 13.0228 11.9252 13.031C12.4462 13.0645 12.8878 13.4114 13.0252 13.895L14.3192 18.528C14.7102 19.9345 13.84 21.3792 12.3752 21.7555C10.9086 22.1336 9.40036 21.299 9.00616 19.8912L7.71216 15.264C7.58031 14.7784 7.78393 14.266 8.21916 13.9882C8.30634 13.9304 8.34635 13.8263 8.31916 13.728L7.53616 10.9008C7.51842 10.8389 7.47604 10.7861 7.41816 10.7539C7.19256 10.6342 6.98471 10.486 6.80016 10.3133L0.432156 4.20672C0.431986 4.20662 0.431779 4.20651 0.431537 4.20637C0.417533 4.19851 0.285156 4.12426 0.285156 3.63072V2.952C0.285156 2.55435 0.620943 2.232 1.03516 2.232C1.44937 2.232 1.78516 2.55435 1.78516 2.952V3.44256C1.78558 3.55148 1.86236 3.64647 1.97216 3.67392L4.46716 4.29984C4.55208 4.32101 4.64235 4.29789 4.705 4.23892C4.76765 4.17995 4.79352 4.09377 4.77316 4.01184L4.11616 1.61856C4.0874 1.51299 3.98782 1.43952 3.87416 1.44H3.36416C2.94994 1.44 2.61416 1.11765 2.61416 0.72C2.61416 0.322355 2.94994 0 3.36416 0H4.07116C4.56682 0 4.65512 0.115467 4.67169 0.137127C4.6728 0.138583 4.67359 0.139616 4.67416 0.14016L11.0382 6.24384C11.2185 6.42058 11.3732 6.61981 11.4982 6.83616C11.5313 6.89186 11.5865 6.93236 11.6512 6.94848L14.5942 7.70496C14.6966 7.73198 14.8056 7.69337 14.8652 7.60896C15.1551 7.19174 15.6886 6.99674 16.1942 7.1232L21.0262 8.36256C22.4916 8.74067 23.3617 10.1862 22.9712 11.5939C22.9647 11.6156 22.9557 11.6364 22.9467 11.6571C22.9389 11.675 22.9312 11.6928 22.9252 11.711C23.3172 11.9866 23.7172 12.5914 23.7172 13.9267C23.3854 16.2818 22.8723 18.6101 22.1822 20.8925C22.1701 20.933 22.1763 20.9765 22.1992 21.0125C22.2213 21.0478 22.2574 21.073 22.2992 21.0826C22.436 21.1094 22.5755 21.1219 22.7152 21.12ZM7.78516 8.17344C7.78516 8.70363 8.23287 9.13344 8.78516 9.13344C9.33744 9.13344 9.78516 8.70363 9.78516 8.17344C9.78516 7.64325 9.33744 7.21344 8.78516 7.21344C8.23287 7.21344 7.78516 7.64325 7.78516 8.17344Z" fill="black"/>
</svg>
