<svg width="24" height="24" viewBox="0 0 24 24" fill="none" xmlns="http://www.w3.org/2000/svg">
<path fill-rule="evenodd" clip-rule="evenodd" d="M23.682 8.645C23.4883 8.46362 23.2305 8.36667 22.9653 8.37548C22.7001 8.3843 22.4492 8.49816 22.268 8.692C20.43 10.657 19.5 12.064 19.5 12.875V20.375C19.5 20.9273 19.0523 21.375 18.5 21.375C17.9477 21.375 17.5 20.9273 17.5 20.375V6.875C17.5 5.49429 16.3807 4.375 15 4.375H14.752C14.6139 4.375 14.502 4.26307 14.502 4.125V2.375C14.5009 1.40896 13.718 0.626102 12.752 0.625H1.752C0.785406 0.62555 0.00165403 1.40841 0 2.375V21.375C0.00165144 22.3408 0.784187 23.1233 1.75 23.125H12.75C13.716 23.1239 14.4989 22.341 14.5 21.375V6.625C14.5 6.48693 14.6119 6.375 14.75 6.375H15C15.2761 6.375 15.5 6.59886 15.5 6.875V20.375C15.5 22.0319 16.8431 23.375 18.5 23.375C20.1569 23.375 21.5 22.0319 21.5 20.375V18.148C21.4996 18.0531 21.5531 17.9663 21.638 17.924L22.671 17.407C23.1801 17.1542 23.5014 16.6344 23.5 16.066V14.875C23.5 14.0466 22.8284 13.375 22 13.375H21.74C21.6027 13.375 21.4911 13.2643 21.49 13.127V12.971C22.1045 11.9051 22.8577 10.9256 23.73 10.058C24.1068 9.6545 24.0853 9.022 23.682 8.645ZM10.749 15.625C10.749 15.9011 10.5251 16.125 10.249 16.125H9.249C8.97286 16.125 8.749 15.9011 8.749 15.625V12.625C8.749 12.3489 8.97286 12.125 9.249 12.125H10.249C10.5251 12.125 10.749 12.3489 10.749 12.625V15.625ZM11.249 7.375C11.5251 7.375 11.749 7.15114 11.749 6.875V3.875C11.749 3.59886 11.5251 3.375 11.249 3.375H3.249C2.97286 3.375 2.749 3.59886 2.749 3.875V6.875C2.749 7.15114 2.97286 7.375 3.249 7.375H11.249Z" fill="black"/>
</svg>
