<svg width="24" height="24" viewBox="0 0 24 24" fill="none" xmlns="http://www.w3.org/2000/svg">
<path fill-rule="evenodd" clip-rule="evenodd" d="M0 12C0 5.37258 5.37258 0 12 0C18.6244 0.00716485 23.9928 5.37555 24 12C24 18.6274 18.6274 24 12 24C5.37258 24 0 18.6274 0 12ZM8.726 6.588C9.57186 7.49762 10.7579 8.01455 12 8.015C13.242 8.01481 14.428 7.49825 15.274 6.589C15.3273 6.53262 15.351 6.45448 15.338 6.378C15.3258 6.30158 15.2789 6.23511 15.211 6.198C13.2108 5.10133 10.7892 5.10133 8.789 6.198C8.72119 6.23501 8.6743 6.3013 8.66198 6.37757C8.64966 6.45384 8.67329 6.53152 8.726 6.588ZM13.414 13.415C12.8421 13.9871 11.9818 14.1583 11.2343 13.8488C10.4869 13.5393 9.99957 12.81 9.99957 12.001C9.99957 11.192 10.4869 10.4627 11.2343 10.1532C11.9818 9.84366 12.8421 10.0149 13.414 10.587C14.1941 11.3679 14.1941 12.6331 13.414 13.414V13.415ZM6.453 15.4C7.44478 14.5488 8.01532 13.3069 8.015 12C8.01491 10.7387 7.48257 9.53608 6.549 8.688C6.49291 8.63706 6.41695 8.61395 6.342 8.625C6.26721 8.63651 6.20171 8.6814 6.164 8.747C4.97982 10.7732 4.94415 13.2718 6.07 15.331C6.10662 15.397 6.17079 15.4432 6.245 15.457C6.31939 15.4706 6.39592 15.4496 6.453 15.4ZM12 15.985C13.3259 15.984 14.5842 16.5698 15.437 17.585C15.4849 17.6414 15.5054 17.7162 15.4928 17.7892C15.4803 17.8622 15.436 17.9258 15.372 17.963C13.2879 19.1768 10.7121 19.1768 8.628 17.963C8.5641 17.9257 8.51989 17.8622 8.50716 17.7893C8.49444 17.7165 8.51451 17.6417 8.562 17.585C9.41517 16.5697 10.6738 15.9839 12 15.985ZM17.755 15.458C17.8294 15.4446 17.8937 15.3983 17.93 15.332H17.926C19.0519 13.2728 19.0162 10.7742 17.832 8.748C17.7943 8.68223 17.7287 8.63723 17.6537 8.62574C17.5788 8.61426 17.5027 8.63754 17.447 8.689C16.4973 9.55326 15.9644 10.7836 15.9835 12.0675C16.0026 13.3515 16.572 14.5654 17.547 15.401C17.6039 15.4509 17.6806 15.4719 17.755 15.458Z" fill="black"/>
</svg>
