<svg width="24" height="24" viewBox="0 0 24 24" fill="none" xmlns="http://www.w3.org/2000/svg">
<path d="M22.405 13.031C22.5458 12.8903 22.6248 12.6995 22.6248 12.5005C22.6248 12.3015 22.5458 12.1107 22.405 11.97L20.914 10.479C20.7331 10.292 20.4683 10.2118 20.214 10.267L16.042 11.102C15.9239 11.126 15.8055 11.062 15.761 10.95L15.43 10.124C15.1016 9.29333 14.2982 8.74826 13.405 8.75H11.625C11.5586 8.75027 11.4949 8.72401 11.4479 8.67707C11.401 8.63013 11.3747 8.56639 11.375 8.5V7.75C11.375 7.61193 11.4869 7.5 11.625 7.5H12.375C12.9273 7.5 13.375 7.05228 13.375 6.5C13.375 5.94772 12.9273 5.5 12.375 5.5H8.375C7.82272 5.5 7.375 5.94772 7.375 6.5C7.375 7.05228 7.82272 7.5 8.375 7.5H9.125C9.26307 7.5 9.375 7.61193 9.375 7.75V8.5C9.37527 8.56639 9.34901 8.63013 9.30207 8.67707C9.25513 8.72401 9.19139 8.75027 9.125 8.75H5.052C4.26396 8.7511 3.62555 9.38996 3.625 10.178V13.847C3.6283 15.1711 4.70089 16.2437 6.025 16.247H14.091C15.1021 16.2488 16.0779 15.8758 16.83 15.2L20.171 12.191C20.2698 12.102 20.421 12.106 20.515 12.2L21.345 13.03C21.4854 13.1708 21.676 13.2501 21.8748 13.2503C22.0736 13.2504 22.2644 13.1716 22.405 13.031V13.031Z" fill="black"/>
<path d="M3.58223 5.79279C3.19173 5.4024 2.55873 5.4024 2.16823 5.79279L0.418225 7.54279C0.16546 7.79537 0.0666486 8.16362 0.159012 8.50882C0.251376 8.85401 0.520883 9.12371 0.866012 9.21632C1.21114 9.30892 1.57946 9.21037 1.83223 8.95779L3.58223 7.20779C3.77 7.02022 3.87551 6.7657 3.87551 6.50029C3.87551 6.23488 3.77 5.98035 3.58223 5.79279Z" fill="black"/>
<path d="M22.739 14.6579C22.6447 14.5572 22.5129 14.5001 22.375 14.4999C22.2307 14.4844 22.0892 14.5474 22.004 14.6649C21.3957 15.308 21.0013 16.1236 20.875 16.9999C20.9047 17.8277 21.5778 18.4871 22.406 18.4999C23.2194 18.4762 23.8684 17.8135 23.875 16.9999C23.7596 16.1169 23.361 15.2951 22.739 14.6579Z" fill="black"/>
</svg>
