<svg width="24" height="24" viewBox="0 0 24 24" fill="none" xmlns="http://www.w3.org/2000/svg">
<path fill-rule="evenodd" clip-rule="evenodd" d="M20.3998 13C19.3574 13.003 18.3683 13.48 17.6917 14.306C17.624 14.3877 17.5136 14.4148 17.4181 14.373L15.7621 13.654C15.693 13.624 15.6412 13.5623 15.6219 13.487C15.6027 13.4112 15.6191 13.3303 15.6661 13.269C16.2562 12.4516 16.9725 11.742 17.7857 11.169C19.2767 10.1486 20.917 9.38735 22.6424 8.91502C23.4074 8.70454 23.8848 7.91243 23.7344 7.10328C23.584 6.29412 22.8573 5.74488 22.0721 5.84702C21.0953 5.97384 20.06 6.18379 18.9662 6.40559L18.9099 6.41702C18.5201 6.49635 18.1278 6.57468 17.7329 6.65202C17.6867 6.66104 17.644 6.68399 17.6101 6.71802L17.6024 6.72502L14.0254 9.70002C13.5993 10.0537 13.0707 10.2465 12.5259 10.247H11.8923C11.047 10.2456 10.2642 9.78303 9.82926 9.02802L8.8635 7.33502C8.82897 7.27472 8.82093 7.2019 8.84142 7.13502L9.11694 6.23502C9.23146 5.80098 9.61025 5.50013 10.0424 5.50002H11.5198C12.05 5.50002 12.4798 5.0523 12.4798 4.50002C12.4798 3.94773 12.05 3.50002 11.5198 3.50002H10.0424C8.78678 3.49565 7.67418 4.34188 7.29582 5.58902L6.5547 8.01802C6.51698 8.14057 6.39609 8.21327 6.27534 8.18602C2.64942 7.36602 1.16238 9.84902 1.09518 9.96702C0.828596 10.4344 0.972879 11.0383 1.4187 11.321C1.56898 11.4186 1.74272 11.47 1.91982 11.469C2.24984 11.4688 2.5573 11.2945 2.73678 11.006C2.83278 10.854 3.61038 9.73102 5.6331 10.089C5.70225 10.1005 5.76319 10.1427 5.80005 10.2048C5.83692 10.2668 5.84606 10.3424 5.8251 10.412L5.38542 11.833C5.3506 11.9461 5.24444 12.0183 5.13102 12.006C5.10078 12.002 5.07031 12 5.03982 12C2.99655 11.9797 1.24783 13.5228 0.931043 15.6256C0.614253 17.7283 1.82515 19.7552 3.77616 20.3879C5.72718 21.0206 7.82855 20.0678 8.71355 18.1493C9.59855 16.2308 8.99965 13.9264 7.30638 12.735C7.21737 12.6731 7.17827 12.5574 7.21038 12.451L7.58382 11.233C7.60913 11.1492 7.67479 11.0854 7.7568 11.0649C7.8388 11.0444 7.92511 11.0703 7.98414 11.133C8.59428 11.8483 9.11787 12.6389 9.54318 13.487L9.55265 13.5041L9.55266 13.5041C10.2206 14.7099 10.7957 15.748 11.7589 15.748H12.2389C12.8727 15.7679 13.4954 15.5712 14.012 15.188C14.0797 15.1377 14.1676 15.1275 14.2443 15.161L16.6731 16.215C16.773 16.2579 16.8328 16.3654 16.819 16.477C16.8069 16.5668 16.8002 16.6573 16.7989 16.748C16.7981 18.2648 17.6746 19.6328 19.0196 20.2139C20.3647 20.795 21.9134 20.4749 22.9434 19.4027C23.9735 18.3306 24.2821 16.7177 23.7253 15.3161C23.1685 13.9146 21.856 13.0004 20.3998 13ZM5.03982 18.5C4.00009 18.5023 3.10701 17.731 2.91652 16.6663C2.72603 15.6016 3.29245 14.547 4.26318 14.159C4.34928 14.1245 4.44674 14.1445 4.51389 14.2104C4.58103 14.2763 4.60598 14.3764 4.57806 14.468L4.12782 15.946C3.96664 16.4723 4.24559 17.0351 4.75086 17.203C5.25614 17.3709 5.7964 17.0803 5.95758 16.554L6.41166 15.07C6.43967 14.9785 6.51548 14.9119 6.60675 14.8984C6.69801 14.885 6.78859 14.9272 6.83982 15.007C7.07557 15.375 7.20089 15.8077 7.19982 16.25C7.19824 17.492 6.2321 18.4984 5.03982 18.5ZM19.0078 17.726C19.3191 18.2095 19.841 18.4997 20.3998 18.5C21.3277 18.5 22.0798 17.7165 22.0798 16.75C22.0798 15.7835 21.3277 15 20.3998 15C20.2915 14.9995 20.1834 15.0105 20.0773 15.033C19.9736 15.0543 19.8954 15.1437 19.8848 15.2532C19.8742 15.3628 19.9337 15.4666 20.0312 15.509L20.7656 15.827C21.255 16.0396 21.4862 16.6253 21.2821 17.135C21.0779 17.6448 20.5158 17.8856 20.0264 17.673L19.2958 17.356C19.1985 17.3164 19.0878 17.3469 19.0221 17.4314C18.9563 17.5159 18.9505 17.6351 19.0078 17.726Z" fill="black"/>
<path d="M10.1026 7.28797C10.0569 7.36776 10.0569 7.46718 10.1026 7.54697L10.6555 8.51697C10.9164 8.97057 11.3863 9.2487 11.8939 9.24997H12.5275C12.8547 9.24991 13.1721 9.13428 13.428 8.92197L15.0658 7.55597C15.1496 7.48652 15.179 7.36768 15.138 7.26465C15.0971 7.16163 14.9955 7.09934 14.8891 7.11197C14.1696 7.20034 13.4459 7.24641 12.7215 7.24997C11.7615 7.24997 10.9704 7.21797 10.3263 7.16997C10.2364 7.16285 10.1502 7.20832 10.1026 7.28797Z" fill="black"/>
</svg>
